<svg xmlns="http://www.w3.org/2000/svg" xmlns:xlink="http://www.w3.org/1999/xlink" version="1.1" x="0px" y="0px" viewBox="0 0 100 100" style="enable-background:new 0 0 100 100;" xml:space="preserve"><g><path d="M19.5,43.4c0.9,0,1.8-0.4,2.6-1.1c1.4-1.4,1.4-3.7,0-5.1c-0.7-0.7-1.6-1.1-2.6-1.1c-0.9,0-1.8,0.4-2.6,1.1   c-1.4,1.4-1.4,3.7,0,5.1C17.6,43.1,18.5,43.4,19.5,43.4z M17.6,38c0.5-0.5,1.1-0.8,1.8-0.8c0.7,0,1.4,0.3,1.8,0.8c1,1,1,2.7,0,3.7   c-0.5,0.5-1.1,0.8-1.8,0.8c-0.7,0-1.4-0.3-1.8-0.8C16.6,40.7,16.6,39,17.6,38z"></path><path d="M50.1,12.8c0.9,0,1.8-0.4,2.6-1.1c1.4-1.4,1.4-3.7,0-5.1c-0.7-0.7-1.6-1.1-2.6-1.1c-0.9,0-1.8,0.4-2.6,1.1   c-1.4,1.4-1.4,3.7,0,5.1C48.3,12.4,49.2,12.8,50.1,12.8z M48.3,7.3c0.5-0.5,1.1-0.8,1.8-0.8c0.7,0,1.4,0.3,1.8,0.8c1,1,1,2.7,0,3.7   c-0.5,0.5-1.1,0.8-1.8,0.8c-0.7,0-1.4-0.3-1.8-0.8C47.3,10,47.3,8.3,48.3,7.3z"></path><path d="M27.1,47.5c-1.3,1.3-1.4,3.3-0.3,4.7l-5.2,5.2c-1.3-1-3-1-4.3,0l-5.2-5.2c1-1.4,0.9-3.4-0.4-4.7c-1.4-1.4-3.7-1.4-5.1,0   c-1.4,1.4-1.4,3.7,0,5.1C8,53.9,10,54,11.4,52.9l5.1,5.2c-1.1,1.4-1,3.4,0.3,4.7c1.4,1.4,3.7,1.4,5.1,0c1.3-1.3,1.4-3.3,0.3-4.7   l5.2-5.2c1.4,1,3.4,0.9,4.7-0.3c1.4-1.4,1.4-3.7,0-5.1S28.5,46.1,27.1,47.5z"></path><path d="M42.4,37.2c-0.7-0.7-1.6-1.1-2.6-1.1c-0.9,0-1.8,0.4-2.6,1.1c-1.4,1.4-1.4,3.7,0,5.1c0.7,0.7,1.6,1.1,2.6,1.1   c0.9,0,1.8-0.4,2.6-1.1C43.8,40.9,43.8,38.7,42.4,37.2z M41.7,41.6c-0.5,0.5-1.1,0.8-1.8,0.8c-0.7,0-1.4-0.3-1.8-0.8   c-1-1-1-2.7,0-3.7c0.5-0.5,1.1-0.8,1.8-0.8c0.7,0,1.4,0.3,1.8,0.8s0.8,1.1,0.8,1.8C42.5,40.5,42.2,41.2,41.7,41.6z"></path><path d="M50.1,33.2c0.9,0,1.8-0.4,2.6-1.1c1.4-1.4,1.4-3.7,0-5.1C52,26.3,51,26,50.1,26s-1.8,0.4-2.6,1.1c-1.4,1.4-1.4,3.7,0,5.1   C48.3,32.8,49.2,33.2,50.1,33.2z M48.3,27.7c0.5-0.5,1.1-0.8,1.8-0.8s1.4,0.3,1.8,0.8c1,1,1,2.7,0,3.7c-0.5,0.5-1.1,0.8-1.8,0.8   s-1.4-0.3-1.8-0.8C47.2,30.4,47.2,28.8,48.3,27.7z"></path><path d="M29.6,66.8c-0.9,0-1.8,0.4-2.6,1.1c-1.4,1.4-1.4,3.7,0,5.1c0.7,0.7,1.6,1.1,2.6,1.1c0.9,0,1.8-0.4,2.6-1.1   c1.4-1.4,1.4-3.7,0-5.1C31.5,67.2,30.6,66.8,29.6,66.8z M31.5,72.3c-0.5,0.5-1.1,0.8-1.8,0.8c-0.7,0-1.4-0.3-1.8-0.8   c-1-1-1-2.7,0-3.7c0.5-0.5,1.1-0.8,1.8-0.8c0.7,0,1.4,0.3,1.8,0.8C32.5,69.6,32.5,71.3,31.5,72.3z"></path><path d="M39.9,56.6c-0.9,0-1.8,0.4-2.6,1.1c-1.4,1.4-1.4,3.7,0,5.1c0.7,0.7,1.6,1.1,2.6,1.1s1.8-0.4,2.6-1.1c1.4-1.4,1.4-3.7,0-5.1   C41.7,57,40.8,56.6,39.9,56.6z M41.7,62.1c-0.5,0.5-1.1,0.8-1.8,0.8s-1.4-0.3-1.8-0.8c-1-1-1-2.7,0-3.7c0.5-0.5,1.1-0.8,1.8-0.8   s1.4,0.3,1.8,0.8C42.7,59.4,42.7,61.1,41.7,62.1z"></path><path d="M52.6,73c1.4-1.4,1.4-3.7,0-5.1s-3.7-1.4-5.1,0c-1.3,1.3-1.4,3.4-0.2,4.8L42,77.8c-1.4-1.1-3.5-1-4.8,0.3   c-1.4,1.4-1.4,3.7,0,5.1c1.3,1.3,3.3,1.4,4.8,0.3l5.2,5.1c-1.2,1.4-1.1,3.5,0.2,4.9c1.4,1.4,3.7,1.4,5.1,0s1.4-3.7,0-5.1   c-1.2-1.2-3.2-1.4-4.6-0.4l-5.3-5.1c0.9-1.3,0.9-3,0-4.2l5.3-5.1C49.4,74.4,51.4,74.2,52.6,73z"></path><path d="M60.3,56.6c-0.9,0-1.8,0.4-2.6,1.1c-1.4,1.4-1.4,3.7,0,5.1c0.7,0.7,1.6,1.1,2.6,1.1c0.9,0,1.8-0.4,2.6-1.1   c1.4-1.4,1.4-3.7,0-5.1C62.1,56.9,61.2,56.6,60.3,56.6z M62.1,62c-0.5,0.5-1.1,0.8-1.8,0.8c-0.7,0-1.4-0.3-1.8-0.8   c-1-1-1-2.7,0-3.7c0.5-0.5,1.1-0.8,1.8-0.8c0.7,0,1.4,0.3,1.8,0.8s0.8,1.1,0.8,1.8C62.9,60.9,62.6,61.6,62.1,62z"></path><path d="M70.5,46.4c-0.9,0-1.8,0.4-2.6,1.1c-1.4,1.4-1.4,3.7,0,5.1c0.7,0.7,1.6,1.1,2.6,1.1s1.8-0.4,2.6-1.1c1.4-1.4,1.4-3.7,0-5.1   C72.4,46.7,71.4,46.4,70.5,46.4z M72.3,51.8c-0.5,0.5-1.1,0.8-1.8,0.8s-1.4-0.3-1.8-0.8c-1-1-1-2.7,0-3.7c0.5-0.5,1.1-0.8,1.8-0.8   s1.4,0.3,1.8,0.8C73.4,49.1,73.4,50.8,72.3,51.8z"></path><path d="M78.5,36.9l-5.2-5.2c1.1-1.4,1-3.5-0.3-4.8c-1.3-1.3-3.3-1.4-4.8-0.3l-5.2-5.2c1.1-1.4,1-3.5-0.3-4.8   c-1.4-1.4-3.7-1.4-5.1,0c-1.4,1.4-1.4,3.7,0,5.1c1.3,1.3,3.3,1.4,4.7,0.4l5.2,5.2c-0.9,1.3-0.9,3.1,0.1,4.3L62.6,37   c-1.4-1.2-3.5-1.1-4.8,0.2c-1.3,1.3-1.4,3.4-0.2,4.8l-5.1,5.2c-1.4-1.2-3.5-1.2-4.9,0.2c-1.4,1.4-1.4,3.7,0,5.1   c1.4,1.4,3.7,1.4,5.1,0c1.2-1.2,1.4-3.1,0.5-4.5l5.2-5.3c1.4,1,3.3,0.8,4.6-0.4c1.3-1.3,1.4-3.2,0.4-4.6l5.2-5.2   c1.3,0.9,3,0.9,4.2,0l5.2,5.2c-1,1.4-0.9,3.4,0.4,4.7c1.4,1.4,3.7,1.4,5.1,0c1.4-1.4,1.4-3.7,0-5.1C82,35.9,79.9,35.8,78.5,36.9z"></path><path d="M60.3,77c-0.9,0-1.8,0.4-2.6,1.1c-1.4,1.4-1.4,3.7,0,5.1c0.7,0.7,1.6,1.1,2.6,1.1s1.8-0.4,2.6-1.1c1.4-1.4,1.4-3.7,0-5.1   C62.1,77.4,61.2,77,60.3,77z M62.1,82.5c-0.5,0.5-1.1,0.8-1.8,0.8s-1.4-0.3-1.8-0.8c-1-1-1-2.7,0-3.7c0.5-0.5,1.1-0.8,1.8-0.8   s1.4,0.3,1.8,0.8C63.1,79.8,63.1,81.4,62.1,82.5z"></path><ellipse transform="matrix(0.7071 -0.7071 0.7071 0.7071 -29.1355 70.4548)" cx="70.5" cy="70.4" rx="3.6" ry="3.6"></ellipse><path d="M80.7,56.6c-0.9,0-1.8,0.4-2.6,1.1c-1.4,1.4-1.4,3.7,0,5.1c0.7,0.7,1.6,1.1,2.6,1.1c0.9,0,1.8-0.4,2.6-1.1   c1.4-1.4,1.4-3.7,0-5.1C82.5,56.9,81.6,56.6,80.7,56.6z M82.5,62c-0.5,0.5-1.1,0.8-1.8,0.8c-0.7,0-1.4-0.3-1.8-0.8   c-1-1-1-2.7,0-3.7c0.5-0.5,1.1-0.8,1.8-0.8c0.7,0,1.4,0.3,1.8,0.8C83.6,59.3,83.6,61,82.5,62z"></path><path d="M93.5,47.4c-0.7-0.7-1.6-1.1-2.6-1.1s-1.8,0.4-2.6,1.1c-1.4,1.4-1.4,3.7,0,5.1c0.7,0.7,1.6,1.1,2.6,1.1s1.8-0.4,2.6-1.1   C94.9,51.1,94.9,48.8,93.5,47.4z M92.8,51.8c-0.5,0.5-1.1,0.8-1.8,0.8s-1.4-0.3-1.8-0.8c-1-1-1-2.7,0-3.7c0.5-0.5,1.1-0.8,1.8-0.8   s1.4,0.3,1.8,0.8C93.8,49.1,93.8,50.8,92.8,51.8z"></path><path d="M37.8,22.3c1.4,1,3.4,0.9,4.6-0.4c1.4-1.4,1.4-3.7,0-5.1c-1.4-1.4-3.7-1.4-5.1,0c-1.3,1.3-1.4,3.4-0.2,4.8l-5.3,5.1   c-1.4-1.1-3.4-1-4.7,0.3c-1.4,1.4-1.4,3.7,0,5.1c1.4,1.4,3.7,1.4,5.1,0c1.3-1.3,1.4-3.3,0.3-4.7L37.8,22.3z"></path></g></svg>